{
  "accessors": [
    {
      "name": "faces_0_158158_1_0_positions",
      "componentType": 5126,
      "count": 82240,
      "min": [
        -22.821821212768555,
        -64.9891586303711,
        -4.472655773162842
      ],
      "max": [
        30.26948356628418,
        39.65634536743164,
        56.42838668823242
      ],
      "type": "VEC3",
      "bufferView": 0,
      "byteOffset": 0
    },
    {
      "name": "faces_0_158158_1_0_normals",
      "componentType": 5126,
      "count": 82240,
      "min": [
        -0.9999166131019592,
        -0.9999794960021973,
        -0.9999601244926453
      ],
      "max": [
        0.9998856782913208,
        0.9999704360961914,
        0.9999264478683472
      ],
      "type": "VEC3",
      "bufferView": 1,
      "byteOffset": 0
    },
    {
      "name": "faces_0_158158_1_0_texcoords",
      "componentType": 5126,
      "count": 82240,
      "min": [
        0.0015079999575391412,
        0.0015079999575391412
      ],
      "max": [
        0.9797890186309814,
        0.9122989773750305
      ],
      "type": "VEC2",
      "bufferView": 2,
      "byteOffset": 0
    },
    {
      "name": "faces_0_158158_1_0_indices",
      "componentType": 5125,
      "count": 474474,
      "min": [
        0
      ],
      "max": [
        82239
      ],
      "type": "SCALAR",
      "bufferView": 3,
      "byteOffset": 0
    }
  ],
  "asset": {
    "generator": "obj2gltf",
    "version": "2.0"
  },
  "buffers": [
    {
      "name": "DY_JK28-1-19_B19S2K05",
      "byteLength": 4529576,
      "uri": "DY_JK28-1-19_B19S2K05.bin"
    }
  ],
  "bufferViews": [
    {
      "name": "bufferView_0",
      "buffer": 0,
      "byteLength": 986880,
      "byteOffset": 0,
      "byteStride": 12,
      "target": 34962
    },
    {
      "name": "bufferView_1",
      "buffer": 0,
      "byteLength": 986880,
      "byteOffset": 986880,
      "byteStride": 12,
      "target": 34962
    },
    {
      "name": "bufferView_2",
      "buffer": 0,
      "byteLength": 657920,
      "byteOffset": 1973760,
      "byteStride": 8,
      "target": 34962
    },
    {
      "name": "bufferView_3",
      "buffer": 0,
      "byteLength": 1897896,
      "byteOffset": 2631680,
      "target": 34963
    }
  ],
  "images": [
    {
      "name": "DY_JK28-1-19_B19S2K05__0",
      "uri": "DY_JK28-1-19_B19S2K05__0.jpg"
    }
  ],
  "materials": [
    {
      "name": "DefaultMaterial36",
      "pbrMetallicRoughness": {
        "baseColorTexture": {
          "index": 0
        },
        "baseColorFactor": [
          1,
          1,
          1,
          1
        ],
        "metallicFactor": 0,
        "roughnessFactor": 10
      },
      "emissiveFactor": [
        0,
        0,
        0
      ],
      "alphaMode": "OPAQUE",
      "doubleSided": false
    }
  ],
  "meshes": [
    {
      "name": "faces_0_158158_1",
      "primitives": [
        {
          "attributes": {
            "POSITION": 0,
            "NORMAL": 1,
            "TEXCOORD_0": 2
          },
          "indices": 3,
          "material": 0,
          "mode": 4
        }
      ]
    }
  ],
  "nodes": [
    {
      "name": "faces_0_158158",
      "mesh": 0
    }
  ],
  "samplers": [
    {
      "wrapS": 10497,
      "wrapT": 10497
    }
  ],
  "scene": 0,
  "scenes": [
    {
      "nodes": [
        0
      ]
    }
  ],
  "textures": [
    {
      "name": "DY_JK28-1-19_B19S2K05__0",
      "sampler": 0,
      "source": 0
    }
  ]
}
