<?xml version="1.0" encoding="UTF-8"?>
<svg width="437px" height="437px" viewBox="0 0 437 437" version="1.1" xmlns="http://www.w3.org/2000/svg" xmlns:xlink="http://www.w3.org/1999/xlink">
    <title>编组 7</title>
    <defs>
        <linearGradient x1="28.1446635%" y1="50%" x2="118.242059%" y2="50%" id="linearGradient-1">
            <stop stop-color="#FFB015" stop-opacity="0.0089905212" offset="0%"></stop>
            <stop stop-color="#FFD033" offset="100%"></stop>
        </linearGradient>
        <filter x="-165.8%" y="-157.8%" width="431.6%" height="415.7%" filterUnits="objectBoundingBox" id="filter-2">
            <feGaussianBlur stdDeviation="49.7962392" in="SourceGraphic"></feGaussianBlur>
        </filter>
        <linearGradient x1="14.6446609%" y1="17.7015702%" x2="84.5056576%" y2="81.5222139%" id="linearGradient-3">
            <stop stop-color="#FF931B" stop-opacity="0.562547804" offset="0%"></stop>
            <stop stop-color="#FFBD08" offset="100%"></stop>
        </linearGradient>
        <linearGradient x1="-54.252778%" y1="-78.3124559%" x2="79.9609016%" y2="70.7965479%" id="linearGradient-4">
            <stop stop-color="#FFF3E3" stop-opacity="0" offset="0%"></stop>
            <stop stop-color="#FFFFFF" stop-opacity="0" offset="52.3369342%"></stop>
            <stop stop-color="#FFFFFF" stop-opacity="0.517489347" offset="100%"></stop>
        </linearGradient>
        <path d="M220.88348,182.353992 L254.341245,215.371524 C255.595438,216.609215 255.608816,218.629286 254.371126,219.88348 C254.361231,219.893506 254.351271,219.903466 254.341245,219.91336 L220.88348,252.930892 C219.641016,254.157007 217.643868,254.157007 216.401404,252.930892 L182.943639,219.91336 C181.689446,218.675669 181.676068,216.655598 182.913758,215.401404 C182.923653,215.391378 182.933613,215.381418 182.943639,215.371524 L216.401404,182.353992 C217.643868,181.127877 219.641016,181.127877 220.88348,182.353992 Z" id="path-5"></path>
        <filter x="-16.4%" y="-16.7%" width="132.8%" height="133.3%" filterUnits="objectBoundingBox" id="filter-6">
            <feGaussianBlur stdDeviation="8.5" in="SourceAlpha" result="shadowBlurInner1"></feGaussianBlur>
            <feOffset dx="-9" dy="0" in="shadowBlurInner1" result="shadowOffsetInner1"></feOffset>
            <feComposite in="shadowOffsetInner1" in2="SourceAlpha" operator="arithmetic" k2="-1" k3="1" result="shadowInnerInner1"></feComposite>
            <feColorMatrix values="0 0 0 0 1   0 0 0 0 0.682944985   0 0 0 0 0  0 0 0 0.5 0" type="matrix" in="shadowInnerInner1"></feColorMatrix>
        </filter>
        <filter x="-165.8%" y="-157.8%" width="431.6%" height="415.7%" filterUnits="objectBoundingBox" id="filter-7">
            <feGaussianBlur stdDeviation="49.7962392" in="SourceGraphic"></feGaussianBlur>
        </filter>
    </defs>
    <g id="切图" stroke="none" stroke-width="1" fill="none" fill-rule="evenodd">
        <g id="画板" transform="translate(-46.000000, -279.000000)">
            <g id="编组-7" transform="translate(46.000000, 279.000000)">
                <polygon id="矩形备份-11" fill="url(#linearGradient-1)" style="mix-blend-mode: screen;" opacity="0.679385231" filter="url(#filter-2)" points="181.393794 167.512796 270.739381 166.788764 269.978218 260.716175 180.632632 261.440207"></polygon>
                <polygon id="矩形备份-9" fill="url(#linearGradient-3)" transform="translate(229.642442, 207.642442) rotate(-45.000000) translate(-229.642442, -207.642442) " points="230.131331 186.142442 251.642442 207.164664 229.153553 229.142442 207.642442 208.12022"></polygon>
                <g id="矩形" transform="translate(218.642442, 217.642442) rotate(-45.000000) translate(-218.642442, -217.642442) ">
                    <use fill-opacity="0.51" fill="#EFFFF4" fill-rule="evenodd" style="mix-blend-mode: soft-light;" xlink:href="#path-5"></use>
                    <use fill="black" fill-opacity="1" filter="url(#filter-6)" xlink:href="#path-5"></use>
                    <use stroke="url(#linearGradient-4)" stroke-width="1.59525216" xlink:href="#path-5"></use>
                </g>
                <path d="M226.15984,146.012281 L291.321573,209.974718 C295.832482,214.402604 295.899786,221.64893 291.471899,226.15984 C291.422257,226.210413 291.372146,226.260524 291.321573,226.310166 L226.15984,290.272603 C221.708067,294.642442 214.576817,294.642442 210.125044,290.272603 L144.963311,226.310166 C140.452402,221.88228 140.385098,214.635953 144.812985,210.125044 C144.862627,210.074471 144.912738,210.02436 144.963311,209.974718 L210.125044,146.012281 C214.576817,141.642442 221.708067,141.642442 226.15984,146.012281 Z" id="矩形" stroke="#FFFFFF" stroke-width="1.14451034" opacity="0.200000003" transform="translate(218.142442, 218.142442) rotate(-45.000000) translate(-218.142442, -218.142442) "></path>
                <path d="M226.665889,110.029898 L328.339939,209.98066 C332.847567,214.411887 332.909502,221.658261 328.478275,226.165889 C328.432558,226.212394 328.386444,226.258507 328.339939,226.304224 L226.665889,326.254986 C222.212649,330.632747 215.072235,330.632747 210.618995,326.254986 L108.944945,226.304224 C104.437317,221.872997 104.375382,214.626623 108.806609,210.118995 C108.852326,210.07249 108.89844,210.026377 108.944945,209.98066 L210.618995,110.029898 C215.072235,105.652137 222.212649,105.652137 226.665889,110.029898 Z" id="矩形" stroke="#FFFFFF" stroke-width="1.14451034" opacity="0.200000003" transform="translate(218.642442, 218.142442) rotate(-45.000000) translate(-218.642442, -218.142442) "></path>
                <path d="M226.169506,73.0404534 L365.350913,209.984217 C369.856576,214.417442 369.915299,221.663843 365.482074,226.169506 C365.438708,226.21358 365.394987,226.257302 365.350913,226.300667 L226.169506,363.244431 C221.715392,367.626935 214.569492,367.626935 210.115378,363.244431 L70.9339714,226.300667 C66.4283081,221.867442 66.3695852,214.621041 70.8028102,210.115378 C70.8461756,210.071304 70.8898974,210.027582 70.9339714,209.984217 L210.115378,73.0404534 C214.569492,68.657949 221.715392,68.657949 226.169506,73.0404534 Z" id="矩形" stroke="#FFFFFF" stroke-width="1.14451034" opacity="0.07" transform="translate(218.142442, 218.142442) rotate(-45.000000) translate(-218.142442, -218.142442) "></path>
                <polygon id="矩形备份-11" fill="url(#linearGradient-1)" style="mix-blend-mode: screen;" opacity="0.679385231" filter="url(#filter-7)" points="174.393794 167.512796 263.739381 166.788764 262.978218 260.716175 173.632632 261.440207"></polygon>
                <g id="编组-10" transform="translate(200.642442, 197.142442)" fill="#FFFFFF">
                    <g id="编组" transform="translate(11.666667, 0.000000)">
                        <path d="M5.52219838,14.7911111 C8.4923492,14.7911111 11.6666667,14.425253 11.6666667,9.68085618 C11.6666667,7.38235449 11.1228907,5.51124196 10.0353751,4.06755556 C9.0195002,5.79319751 8.26656276,6.656 7.77652633,6.656 C7.04152639,6.656 7.77652633,4.40431218 6.92660973,2.69619769 C6.35997436,1.55748181 5.35496402,0.65874432 3.91157871,0 C4.11228182,1.64067072 4.06885995,2.8307968 3.78127663,3.57035236 C3.34986521,4.67968569 -0.309479307,6.62272 0.0210847303,9.95992747 C0.351652414,13.2971719 2.55208402,14.7911111 5.52219838,14.7911111 Z" id="路径"></path>
                    </g>
                    <g id="炼钢炉-(1)" transform="translate(0.000000, 18.488889)" fill-rule="nonzero">
                        <path d="M21.4947597,2.17921148 L11.939545,2.17921148 C11.5100971,2.17921148 11.1880112,2.50609322 11.1880112,2.9419355 C11.1880112,3.37777778 11.5100971,3.70465948 11.939545,3.70465948 L21.4947597,3.70465948 C21.9242076,3.70465948 22.2462935,3.37777774 22.2462935,2.9419355 C22.2462935,2.50609326 21.9242076,2.17921148 21.4947597,2.17921148 Z" id="路径"></path>
                        <path d="M17.5,11.1139785 L11.1656442,11.1139785 L12.0245399,7.51827958 L22.7607362,7.51827958 L23.7269939,11.1139785 L17.5,11.1139785 Z M22.9754601,5.88387096 L11.8098159,5.88387096 L7.94478527,0.10896058 L26.9478528,0.10896058 L22.9754601,5.88387096 Z M7.6226994,11.6587814 L6.11963191,13.5111111 L0,13.5111111 L0,6.64659498 L3.11349692,0.10896058 L6.11963191,0.10896058 L10.6288343,6.86451614 L9.55521473,11.1139785 L8.80368098,11.1139785 C8.37423315,11.1139785 7.94478527,11.2229391 7.6226994,11.6587814 Z M35,13.5111111 L28.8803681,13.5111111 L27.3773006,11.5498208 C27.0552147,11.2229391 26.7331288,11.0050179 26.196319,11.0050179 L25.2300614,11.0050179 L24.0490797,6.75555556 L28.7730061,0 L31.8865031,0 L35,6.64659498 L35,13.5111111 L35,13.5111111 Z" id="形状"></path>
                    </g>
                </g>
            </g>
        </g>
    </g>
</svg>