<?xml version="1.0" encoding="UTF-8"?>
<svg width="40px" height="40px" viewBox="0 0 40 40" version="1.1" xmlns="http://www.w3.org/2000/svg" xmlns:xlink="http://www.w3.org/1999/xlink">
    <title>户</title>
    <g id="切图" stroke="none" stroke-width="1" fill="none" fill-rule="evenodd">
        <g id="画板" transform="translate(-420.000000, -763.000000)" fill="#FFFFFF" fill-rule="nonzero">
            <g id="户" transform="translate(420.000000, 763.000000)">
                <g id="线描色彩－房屋" transform="translate(4.615385, 4.615385)">
                    <path d="M13.8461538,8.46153846 C12.5737468,8.46153846 11.5384615,7.42627993 11.5384615,6.15384615 C11.5384615,4.88141238 12.5737804,3.84615385 13.8461538,3.84615385 C15.1185609,3.84615385 16.1538462,4.88141238 16.1538462,6.15384615 C16.1538462,7.42627993 15.1185609,8.46153846 13.8461538,8.46153846 Z M13.8461538,4.76919714 C13.0826289,4.76919714 12.461525,5.39036571 12.461525,6.15384615 C12.461525,6.9173266 13.0826289,7.53849517 13.8461538,7.53849517 C14.6096788,7.53849517 15.2307827,6.9173266 15.2307827,6.15384615 C15.2307827,5.39036571 14.6096788,4.76919714 13.8461538,4.76919714 L13.8461538,4.76919714 Z" id="形状"></path>
                    <path d="M26.1538882,25.766207 L24.9602766,25.766207 L24.9602766,24.9660183 C24.9602766,24.4744938 24.6286615,24.0126179 24.1334143,24.0126179 L23.1283297,24.0126179 L23.1283297,11.0555428 L24.1377979,11.0555428 C25.046967,11.0555428 25.3356949,10.7044028 25.4268997,10.467311 C25.5189877,10.228141 25.5700532,9.75905586 24.880129,9.14695581 L15.2351575,0.603534587 C14.3237966,-0.204967422 12.840901,-0.199316969 11.9291149,0.609379872 L2.28411066,9.16744684 C1.59418635,9.7795144 1.64525187,10.2266796 1.73733994,10.4658497 C1.82854472,10.7029414 2.11727264,11.0555428 3.02644172,11.0555428 L3.82746051,11.0555428 L3.82746051,24.0126179 L3.03082532,24.0126179 C2.5355781,24.0126179 2.02822696,24.4744938 2.02822693,24.9660183 L2.02822693,25.766207 L1.01035146,25.766207 C0.515104237,25.766207 0,26.2573094 0,26.7488339 L0,28.4615385 L26.9230769,28.4615385 L26.9230769,26.7488339 C26.9230769,26.2573094 26.6491354,25.766207 26.1538882,25.766207 Z M22.179643,24.0126179 L19.955136,24.0126179 L19.955136,11.0555428 L22.179643,11.0555428 L22.179643,24.0126179 Z M15.9641088,24.0126179 L11.0243948,24.0126179 L11.0243948,15.5510794 L15.9641088,15.5510794 L15.9641088,24.0126179 Z M11.1126554,14.5017733 C10.6174082,14.5017733 10.1084213,14.9993705 10.1084214,15.4908626 L10.1084214,24.0126179 L7.8839144,24.0126179 L7.8839144,12.8740796 L17.9923357,12.8740796 L17.9923357,11.9648112 L7.8839144,11.9648112 L7.8839144,11.0555428 L19.1045892,11.0555428 L19.1045892,24.0126179 L16.8146556,24.0126179 L16.8146556,15.4908626 C16.8146556,14.9993705 16.5800253,14.5017733 16.084778,14.5017733 L11.1126554,14.5017733 Z M3.02644172,10.211222 C2.76905317,10.211222 2.64366296,10.1917053 2.59191048,10.1663756 C2.61359943,10.1115273 2.6802692,10.0029346 2.8826012,9.8233866 L12.5276054,1.27408758 C13.0989438,0.76700807 14.0653285,0.769930697 14.6366343,1.27701021 L24.2816057,9.8335834 C24.4839705,10.0131314 24.5506075,10.1108453 24.5722965,10.1656937 C24.5205439,10.1910558 24.3951537,10.211287 24.1377652,10.211287 L5.85568744,10.211287 L5.85568744,11.0556077 L6.96794095,11.0556077 L6.96794095,24.0126829 L4.74343396,24.0126829 L4.74343396,10.211287 L3.02644172,10.211287 L3.02644172,10.211222 Z M2.87877373,24.8569386 L24.0443032,24.8569386 L24.0443032,25.766207 L2.87877373,25.766207 L2.87877373,24.8569386 Z M26.0725301,27.5197961 L0.915973452,27.5197961 L0.915973452,26.6754755 L26.0725301,26.6754755 L26.0725301,27.5197961 Z" id="形状"></path>
                </g>
            </g>
        </g>
    </g>
</svg>