<?xml version="1.0" encoding="UTF-8"?>
<svg width="48px" height="48px" viewBox="0 0 48 48" version="1.1" xmlns="http://www.w3.org/2000/svg" xmlns:xlink="http://www.w3.org/1999/xlink">
    <title>icon3</title>
    <g id="页面-1" stroke="none" stroke-width="1" fill="none" fill-rule="evenodd">
        <g id="00_登录页" transform="translate(-1250.000000, -700.000000)" fill-rule="nonzero">
            <g id="编组-18" transform="translate(290.000000, 640.000000)">
                <g id="编组-17" transform="translate(900.000000, 0.000000)">
                    <g id="编组-3" transform="translate(60.000000, 60.000000)">
                        <rect id="矩形" fill="#777777" opacity="0" x="0" y="0" width="48" height="48"></rect>
                        <g id="84_城市管理" transform="translate(6.000000, 7.000000)" fill="#FFFFFF">
                            <path d="M35.8161452,18.5924223 C35.4170168,17.3850959 34.5276547,16.5395315 33.0482766,15.9685576 L33.0482766,10.7687725 C33.0482766,10.4854649 32.9094493,10.2195915 32.6795167,10.0583241 L27.9420362,6.70221808 C27.5515845,6.423269 27.0092905,6.51915775 26.731636,6.91142988 C26.7229593,6.92450562 26.7099442,6.94193994 26.7012675,6.95501567 L23.725158,9.10815383 L23.725158,4.22654506 C23.725158,3.9432374 23.5863307,3.67736407 23.356398,3.51609664 L18.6189176,0.159990604 C18.2284659,-0.118958469 17.6861719,-0.0230697255 17.4085173,0.369202408 C17.3998406,0.382278146 17.3868256,0.399712463 17.3781489,0.412788201 L13.078842,3.51609664 C12.8532477,3.68172265 12.7187587,3.9432374 12.7187587,4.22218648 L12.7187587,13.0308752 L9.44330293,10.712111 C9.05285124,10.4331619 8.51055723,10.5290507 8.2329027,10.9213228 C8.22422599,10.9343985 8.21121094,10.9518329 8.20253423,10.9649086 L3.90322732,14.068217 C3.67763301,14.233843 3.5431441,14.4953578 3.5431441,14.7743069 L3.5431441,23.8575861 C3.36093331,23.8750204 3.17872253,23.9491162 3.03121855,24.0842322 C1.8772169,25.1477255 1.03991495,26.2068603 0.541004461,27.2224092 C-0.0273196609,28.3905085 -0.148793519,29.4845119 0.180921239,30.4869851 C0.549681166,31.6027814 1.43904334,32.4744973 2.82731601,33.0759812 C4.03771624,33.5990107 5.59518463,33.9041113 7.45633768,33.9825657 C7.76436067,33.9956414 8.07672202,34 8.39342172,34 C11.9291787,34 16.1503952,33.23289 20.4063186,31.8119932 C25.0396787,30.2646976 29.1828049,28.1115594 32.067809,25.7579266 C33.5168186,24.5767516 34.5797149,23.3955767 35.234806,22.2492703 C35.9940177,20.9416965 36.1892435,19.7082186 35.8161452,18.5924223 L35.8161452,18.5924223 Z M28.1459387,8.97303787 L31.3172741,11.2177062 L31.3172741,20.170228 L28.1459387,21.9964727 L28.1459387,8.97303787 Z M18.8228201,2.4308104 L21.9941555,4.67547872 L21.9941555,25.5966592 L18.8228201,26.9434602 L18.8228201,2.4308104 Z M9.64720548,12.9872894 L12.7274355,15.166579 L12.8185408,28.2205239 L9.64720548,28.5866446 L9.64720548,12.9872894 Z M33.7380746,21.3906302 C33.1957806,22.3364419 32.2456815,23.3825009 30.983221,24.4154842 C28.2587359,26.6427182 24.3108355,28.6825333 19.868363,30.1688088 C15.790312,31.5330441 11.7599829,32.2652855 8.41077513,32.2652855 C8.11576719,32.2652855 7.82075925,32.2609269 7.53876637,32.2478511 C5.91188434,32.1824724 4.52361167,31.9165991 3.53012904,31.4850998 C2.61907511,31.0884691 2.05075099,30.5697981 1.84251009,29.9465213 C1.50845698,28.9353309 2.12884132,27.536227 3.55615916,26.0325171 L3.55615916,28.4776801 C3.55615916,28.9571238 3.94661084,29.3493959 4.42382957,29.3493959 C4.9010483,29.3493959 5.29149999,28.9571238 5.29149999,28.4776801 L5.29149999,15.2275991 L7.916203,13.3316171 L7.916203,29.5673249 C7.916203,29.8157639 8.02032345,30.0511272 8.20687259,30.2167532 C8.36739161,30.3605863 8.57129416,30.4390407 8.78387341,30.4390407 C8.81858023,30.4390407 8.84894869,30.4390407 8.88365551,30.4346822 L13.7903317,29.8680669 C14.2285053,29.8157639 14.55822,29.4452847 14.55822,29.0007096 L14.4671146,4.67112014 L17.0918176,2.77513816 L17.0918176,28.2597511 C17.0918176,28.5517759 17.2393216,28.8263664 17.477931,28.9876338 C17.6210966,29.0835226 17.7902923,29.131467 17.9594881,29.131467 C18.0722852,29.131467 18.1894207,29.1096741 18.2978795,29.0617297 L23.2045557,26.9783288 C23.5255938,26.8432129 23.7338347,26.5250366 23.7338347,26.1763502 L23.7338347,24.7641705 C23.7685415,24.6682818 23.7902333,24.5636759 23.7902333,24.4547114 L23.7902333,11.2133476 L26.4149363,9.31736563 L26.4149363,23.5001826 C26.4149363,23.8096417 26.5797936,24.0973079 26.8487715,24.2542168 C27.1177493,24.4111256 27.4474641,24.4111256 27.7164419,24.2542168 L32.6231181,21.4298574 C32.8920959,21.2729486 33.0612916,20.9852823 33.0612916,20.6714646 L33.0612916,17.8732567 C33.7988115,18.2786046 34.0460976,18.7275383 34.1849248,19.1372447 C34.3801507,19.7648801 34.2326467,20.5232729 33.7380746,21.3906302 Z" id="形状"></path>
                        </g>
                    </g>
                </g>
            </g>
        </g>
    </g>
</svg>
