<?xml version="1.0" encoding="UTF-8"?>
<svg width="48px" height="48px" viewBox="0 0 48 48" version="1.1" xmlns="http://www.w3.org/2000/svg" xmlns:xlink="http://www.w3.org/1999/xlink">
    <title>icon2</title>
    <g id="页面-1" stroke="none" stroke-width="1" fill="none" fill-rule="evenodd">
        <g id="00_登录页" transform="translate(-800.000000, -700.000000)" fill="#FFFFFF" fill-rule="nonzero">
            <g id="编组-18" transform="translate(290.000000, 640.000000)">
                <g id="编组-16" transform="translate(450.000000, 0.000000)">
                    <g id="编组-7" transform="translate(60.000000, 60.000000)">
                        <g id="价格预测" transform="translate(5.000000, 8.000000)">
                            <path d="M4.59090909,23.7692308 C5.54545455,23.7692308 6.18181818,24.3846154 6.18181818,25.3076923 L6.18181818,31.4615385 C6.18181818,32.3846154 5.54545455,33 4.59090909,33 C3.63636364,33 3,32.3846154 3,31.4615385 L3,25.3076923 C3,24.3846154 3.63636364,23.7692308 4.59090909,23.7692308 Z M15.7272727,14.5384615 C16.6818182,14.5384615 17.3181818,15.1538462 17.3181818,16.0769231 L17.3181818,31.4615385 C17.3181818,32.3846154 16.6818182,33 15.7272727,33 C14.7727273,33 14.1363636,32.3846154 14.1363636,31.4615385 L14.1363636,16.0769231 C14.1363636,15.1538462 14.7727273,14.5384615 15.7272727,14.5384615 Z M25.2727273,20.6923077 C26.2272727,20.6923077 26.8636364,21.3076923 26.8636364,22.2307692 L26.8636364,31.4615385 C26.8636364,32.3846154 26.2272727,33 25.2727273,33 C24.3181818,33 23.6818182,32.3846154 23.6818182,31.4615385 L23.6818182,22.2307692 C23.6818182,21.3076923 24.3181818,20.6923077 25.2727273,20.6923077 Z M36.4090909,13 C37.3636364,13 38,13.6153846 38,14.5384615 L38,31.4615385 C38,32.3846154 37.3636364,33 36.4090909,33 C35.4545455,33 34.8181818,32.3846154 34.8181818,31.4615385 L34.8181818,14.5384615 C34.8181818,13.6153846 35.4545455,13 36.4090909,13 Z" id="形状"></path>
                            <path d="M14.9456067,6.22689076 L2.70292887,18.5210084 C2.06694561,19.1596639 1.11297071,19.1596639 0.476987448,18.5210084 C-0.158995816,17.8823529 -0.158995816,16.9243697 0.476987448,16.2857143 L14.9456067,1.75630252 L24.4853556,11.3361345 L35.2970711,0.478991597 C35.9330544,-0.159663866 36.8870293,-0.159663866 37.5230126,0.478991597 C38.1589958,1.11764706 38.1589958,2.07563025 37.5230126,2.71428571 L24.4853556,15.8067227 L14.9456067,6.22689076 Z" id="路径"></path>
                        </g>
                    </g>
                </g>
            </g>
        </g>
    </g>
</svg>
