<?xml version="1.0" encoding="UTF-8"?>
<svg width="24px" height="24px" viewBox="0 0 24 24" version="1.1" xmlns="http://www.w3.org/2000/svg" xmlns:xlink="http://www.w3.org/1999/xlink">
    <title>icon-属性-line</title>
    <g id="控件" stroke="none" stroke-width="1" fill="none" fill-rule="evenodd">
        <g id="详情" fill="#FFFFFF" fill-rule="nonzero">
            <path d="M19.5,1.5 C20.2907713,1.5 20.9386238,2.11190834 20.9958857,2.88805324 L21,3 L21,21 C21,21.7907713 20.3880917,22.4386238 19.6119468,22.4958857 L19.5,22.5 L4.5,22.5 C3.70922865,22.5 3.06137616,21.8880917 3.0041143,21.1119468 L3,21 L3,3 C3,2.20922865 3.61190834,1.56137616 4.38805324,1.5041143 L4.5,1.5 L19.5,1.5 Z M19.5,3 L4.5,3 L4.5,21 L19.5,21 L19.5,3 Z M17.25,15 L17.25,16.5 L9.75,16.5 L9.75,15 L17.25,15 Z M8.25,15 L8.25,16.5 L6.75,16.5 L6.75,15 L8.25,15 Z M17.25,11.25 L17.25,12.75 L9.75,12.75 L9.75,11.25 L17.25,11.25 Z M8.25,11.25 L8.25,12.75 L6.75,12.75 L6.75,11.25 L8.25,11.25 Z M17.25,7.5 L17.25,9 L9.75,9 L9.75,7.5 L17.25,7.5 Z M8.25,7.5 L8.25,9 L6.75,9 L6.75,7.5 L8.25,7.5 Z" id="形状"></path>
        </g>
    </g>
</svg>