<?xml version="1.0" encoding="utf-8"?>
<svg version="1.1" xmlns:xlink="http://www.w3.org/1999/xlink" width="14px" height="14px" xmlns="http://www.w3.org/2000/svg">
  <g transform="matrix(1 0 0 1 -127 -231 )">
    <path d="M 5.160909085937502 4.271272728515626  C 5.210545457031251 4.217818185546876  5.278000000000001 4.145272728515627  5.278000000000001 4.145272728515627  C 5.223272728515627 4.204454542968751  5.187636357421876 4.242636357421875  5.160909085937502 4.271272728515626  Z M 6.806545457031251 4.259181814453127  C 7.225909085937502 4.259181814453127  7.526909085937501 4.371181814453127  7.708272728515624 4.595181814453127  C 7.890272728515624 4.8191818144531275  7.980636371093752 5.083272728515626  7.980636371093752 5.387454542968752  C 7.980636371093752 5.605090900390627  7.9182727285156265 5.814454542968751  7.794181828125001 6.016818185546876  C 7.7260909140625005 6.131363642578126  7.636363642578126 6.242090914062501  7.524363642578127 6.347727271484376  L 7.151454556640628 6.716181814453126  C 6.7938181992187525 7.067454542968751  6.562818199218752 7.378636357421875  6.457181828125002 7.651000000000002  C 6.351545470703127 7.922727271484375  6.298727285156253 8.281000000000002  6.298727285156253 8.725181814453126  L 7.128545470703129 8.725181814453126  C 7.128545470703129 8.333818171874999  7.173090927734379 8.037909085937502  7.261545470703126 7.837454542968748  C 7.350000013671877 7.637  7.543454556640628 7.392636357421876  7.841909113281254 7.103090900390624  C 8.252363656250003 6.70536362890625  8.524727298828129 6.4037272578125  8.65963638476563 6.198818171875  C 8.794545470703131 5.993909085937501  8.86263638476563 5.726636357421875  8.86263638476563 5.396999986328125  C 8.86263638476563 4.853545443359376  8.678727298828127 4.406818171875  8.310272742187504 4.056818171875  C 7.941818185546879 3.7068181718750015  7.451818199218753 3.532454529296876  6.839636384765629 3.532454529296876  C 6.177818199218753 3.532454529296876  5.657272742187504 3.736727257812501  5.2780000273437535 4.145272714843751  C 4.898727271484377 4.553818185546876  4.709090914062501 5.093454542968752  4.709090914062501 5.7648181855468765  L 5.538909099609377 5.7648181855468765  C 5.554181828125001 5.360727271484376  5.618454556640627 5.051454542968751  5.729818185546877 4.8370000000000015  C 5.928363642578126 4.452000000000001  6.287272728515626 4.259181814453127  6.806545457031251 4.259181814453127  Z M 7.000000000000002 14  C 10.865909085937503 14  14 10.865909085937503  14 7.000000000000002  C 14 3.1340909140625013  10.865909085937503 0  7.000000000000002 0  C 3.1340909140625013 0  0 3.1340909140625013  0 7.000000000000002  C 0 10.865909085937503  3.1340909140625013 14  7.000000000000002 14  Z M 7.000000000000002 13.363636357421875  C 3.485363642578126 13.363636357421875  0.6363636425781266 10.514636357421875  0.6363636425781266 7.000000000000002  C 0.6363636425781266 3.4853636425781263  3.4853636425781263 0.6363636425781266  7.000000000000002 0.6363636425781266  C 10.514636357421875 0.6363636425781266  13.363636357421875 3.4853636425781263  13.363636357421875 7.000000000000002  C 13.363636357421875 10.514636357421875  10.514636357421875 13.363636357421875  7.000000000000002 13.363636357421875  Z M 6.279636357421876 10.46754545703125  L 6.279636357421876 9.498363642578123  L 7.207454542968749 9.498363642578123  L 7.207454542968749 10.46754545703125  L 6.279636357421876 10.46754545703125  Z " fill-rule="nonzero" fill="#d8d8d8" stroke="none" transform="matrix(1 0 0 1 127 231 )" />
  </g>
</svg>