<?xml version="1.0" standalone="no"?><!DOCTYPE svg PUBLIC "-//W3C//DTD SVG 1.1//EN" "http://www.w3.org/Graphics/SVG/1.1/DTD/svg11.dtd"><svg t="1689058054341" class="icon" viewBox="0 0 1024 1024" version="1.1" xmlns="http://www.w3.org/2000/svg" p-id="2451" width="64" height="64" xmlns:xlink="http://www.w3.org/1999/xlink"><path d="M657.071666 192.162468c15.496973 0 29.794181 8.39836 37.392696 21.995704l153.070104 277.245851c7.098614 12.897481 7.098614 28.294474 0 41.191954L694.464362 810.041789c-7.498535 13.597344-21.795743 21.995704-37.392696 21.995704H357.430189c-15.496973 0-29.794181-8.39836-37.392696-21.995704l-152.970123-277.345831c-7.098614-12.897481-7.098614-28.294474 0-41.191955l153.070103-277.24585c7.498535-13.597344 21.795743-21.995704 37.392697-21.995704h299.541496m0-42.691662H357.430189c-31.093927 0-59.688342 16.8967-74.685413 44.091388L129.674673 470.908026a85.193361 85.193361 0 0 0 0 82.48389l153.070103 277.24585c14.997071 27.194689 43.591486 44.091388 74.685413 44.091388h299.641477c31.093927 0 59.688342-16.8967 74.685413-44.091388L884.827182 553.391916a85.193361 85.193361 0 0 0 0-82.48389L731.757079 193.562195c-14.997071-27.194689-43.591486-43.991408-74.685413-43.991408z" p-id="2452" fill="#BEBEBE"></path><path d="M548.592853 434.415153l42.891623 77.684827-42.891623 77.684828h-82.48389l-42.891623-77.684828 42.891623-77.684827h82.48389m8.39836-42.591681h-99.480571c-10.297989 0-19.796134 5.598906-24.795157 14.597149l-50.79008 91.982035c-4.699082 8.49834-4.699082 18.896309 0 27.394649l50.79008 91.982035c4.999024 8.998243 14.497169 14.597149 24.795157 14.597149h99.480571c10.297989 0 19.796134-5.598906 24.795157-14.597149l50.79008-91.982035c4.699082-8.49834 4.699082-18.896309 0-27.394649l-50.79008-91.982035c-4.999024-8.998243-14.497169-14.597149-24.795157-14.597149z" p-id="2453" fill="#BEBEBE"></path></svg>