<?xml version="1.0" encoding="UTF-8"?>
<svg width="24px" height="24px" viewBox="0 0 24 24" version="1.1" xmlns="http://www.w3.org/2000/svg" xmlns:xlink="http://www.w3.org/1999/xlink">
    <title>筛选</title>
    <g id="切图" stroke="none" stroke-width="1" fill="none" fill-rule="evenodd">
        <g id="icon" transform="translate(-175.000000, -21.000000)" fill="#DBDBDB" fill-rule="nonzero">
            <g id="筛选" transform="translate(175.000000, 21.000000)">
                <path d="M12.5245811,12.5033789 C12.5245811,12.2032857 12.6273305,11.9113472 12.8148887,11.6764916 L15.7195954,8.04520054 C15.762877,7.99101599 15.786464,7.92372922 15.786464,7.85438039 L15.786464,7.3251399 C15.786464,7.15625039 15.649552,7.01933839 15.4806625,7.01933839 L7.32595537,7.01933839 C7.15706586,7.01933839 7.02015386,7.15625039 7.02015386,7.3251399 L7.02015386,7.85519586 C7.02015386,7.9236954 7.04380251,7.99137947 7.08702246,8.04520054 L9.99254459,11.6764916 C10.1801029,11.9113472 10.2828522,12.2032857 10.2828522,12.5041944 L10.2828522,16.6068275 C10.2828522,16.7226244 10.3480898,16.8286356 10.4516546,16.8800102 L12.5253966,17.9172889 L12.5253966,12.5033789 L12.5245811,12.5033789 Z M7.32595537,6.00081547 L15.4806625,6.00081547 C16.2121397,6.00081547 16.8058024,6.59447815 16.8058024,7.32595537 L16.8058024,7.85601133 C16.8058024,8.15610456 16.7030531,8.44804307 16.5154948,8.68289863 L13.6107881,12.3141897 C13.5675066,12.3683743 13.5439274,12.435661 13.5439195,12.5050099 L13.5439195,18.0828295 C13.5438381,18.4007209 13.3791942,18.6959133 13.1087679,18.8630196 C12.8383415,19.0301258 12.5006802,19.0453258 12.2163332,18.903193 L9.99499101,17.7925219 C9.5462595,17.5680489 9.26279255,17.109388 9.26269831,16.607643 L9.26269831,12.5050099 C9.26269041,12.435661 9.23911128,12.3683743 9.19582971,12.3141897 L6.29030757,8.68208316 C6.10238433,8.44713727 6,8.15523703 6,7.85438039 L6,7.3251399 C6,6.59366268 6.59366268,6 7.3251399,6 L7.32595537,6.00081547 Z" id="形状" transform="translate(11.402901, 12.500000) scale(-1, 1) translate(-11.402901, -12.500000) "></path>
            </g>
        </g>
    </g>
</svg>