<?xml version="1.0" encoding="UTF-8"?>
<svg width="16px" height="16px" viewBox="0 0 16 16" version="1.1" xmlns="http://www.w3.org/2000/svg" xmlns:xlink="http://www.w3.org/1999/xlink">
    <title>mima</title>
    <g id="页面-1" stroke="none" stroke-width="1" fill="none" fill-rule="evenodd">
        <g id="00_登录页" transform="translate(-680.000000, -446.000000)" fill-rule="nonzero">
            <g id="编组-20" transform="translate(670.000000, 436.000000)">
                <g id="编组-10" transform="translate(10.000000, 10.000000)">
                    <rect id="矩形" x="0" y="0" width="16" height="16"></rect>
                    <path d="M12,5 C12,2.790861 10.209139,1 8,1 C5.790861,1 4,2.790861 4,5" id="路径" stroke="#CBCBCB"></path>
                    <rect id="矩形" stroke="#CBCBCB" x="1.5" y="5.5" width="13" height="10" rx="2"></rect>
                    <path d="M8,8 C8.27614237,8 8.52614237,8.11192881 8.70710678,8.29289322 C8.88807119,8.47385763 9,8.72385763 9,9 C9,9.27614237 8.88807119,9.52614237 8.70710678,9.70710678 C8.52614237,9.88807119 8.27614237,10 8,10 C7.72385763,10 7.47385763,9.88807119 7.29289322,9.70710678 C7.11192881,9.52614237 7,9.27614237 7,9 C7,8.72385763 7.11192881,8.47385763 7.29289322,8.29289322 C7.47385763,8.11192881 7.72385763,8 8,8 Z" id="椭圆形" stroke="#CBCBCB"></path>
                    <rect id="矩形" stroke="#CBCBCB" x="8.03884313" y="10.5115364" width="1" height="1.98846356" rx="0.5"></rect>
                </g>
            </g>
        </g>
    </g>
</svg>