<?xml version="1.0" encoding="UTF-8"?>
<svg width="40px" height="40px" viewBox="0 0 40 40" version="1.1" xmlns="http://www.w3.org/2000/svg" xmlns:xlink="http://www.w3.org/1999/xlink">
    <title>单元</title>
    <g id="切图" stroke="none" stroke-width="1" fill="none" fill-rule="evenodd">
        <g id="画板" transform="translate(-232.000000, -760.000000)" fill="#FFFFFF" fill-rule="nonzero">
            <g id="单元" transform="translate(232.000000, 760.000000)">
                <g transform="translate(6.923077, 5.384615)">
                    <path d="M5.10121457,5.10121457 L12.388664,5.10121457 L12.388664,6.02939897 L5.10121457,6.02939897 L5.10121457,5.10121457 Z M5.10121457,15.1042043 L12.388664,15.1042043 L12.388664,16.0323887 L5.10121457,16.0323887 L5.10121457,15.1042043 Z M5.10121457,10.2190233 L12.388664,10.2190233 L12.388664,11.1472076 L5.10121457,11.1472076 L5.10121457,10.2190233 Z" id="形状"></path>
                    <path d="M17.5384615,4.1723077 L17.5384615,0 L0,0 L0,27.6923077 L27.6923077,27.6923077 L27.6923077,10.1538462 L17.5384615,4.1723077 Z M5.76923077,26.7923077 L5.76923077,19.7307692 L11.5384615,19.7307692 L11.5384615,26.7923077 L5.76923077,26.7923077 Z M16.3846154,26.7692308 L12.3230769,26.7692308 L12.3230769,18.887574 L5.00664888,18.887574 L5.00664888,26.7692308 L1.15384616,26.7692308 L1.15384616,1.15384616 L16.3846154,1.15384616 L16.3846154,26.7692308 Z M26.5384615,26.5384615 L17.5384615,26.5384615 L17.5384615,5.76923076 L26.5384615,11.0056657 L26.5384615,26.5384615 Z" id="形状"></path>
                    <polygon id="路径" points="18.9473684 13.8461538 22.5910931 13.8461538 22.5910931 14.5748988 18.9473684 14.5748988"></polygon>
                    <polygon id="路径" points="18.9473684 17.4898785 22.5910931 17.4898785 22.5910931 18.2186235 18.9473684 18.2186235"></polygon>
                </g>
            </g>
        </g>
    </g>
</svg>