<?xml version="1.0" encoding="UTF-8"?>
<svg width="24px" height="24px" viewBox="0 0 24 24" version="1.1" xmlns="http://www.w3.org/2000/svg" xmlns:xlink="http://www.w3.org/1999/xlink">
    <title>热网-白</title>
    <g id="切图" stroke="none" stroke-width="1" fill="none" fill-rule="evenodd">
        <g id="icon-有背景" transform="translate(-65.000000, -21.000000)" fill="#FFFFFF" fill-rule="nonzero">
            <g id="热网-白" transform="translate(65.000000, 21.000000)">
                <path d="M5.5,4 C6.32842712,4 7,4.67157288 7,5.5 C7,6.1528467 6.58293192,6.70828193 6.00070296,6.91439849 L6,7.56714772 C6,8.39557484 6.67157288,9.06714772 7.5,9.06714772 L11,9.067 L11,5 L12,5 L12,9.067 L16.5,9.06714772 C17.8807119,9.06714772 19,10.1864358 19,11.5671477 L19.000703,17.0856015 C19.5829319,17.2917181 20,17.8471533 20,18.5 C20,19.3284271 19.3284271,20 18.5,20 C17.6715729,20 17,19.3284271 17,18.5 C17,17.8467813 17.4175435,17.2910851 18.0002925,17.0852495 L18,14.855 L12,14.855 L12,19 L11,19 L11,14.855 L5.1604274,14.8556107 L5.1604274,13.8556107 L11,13.855 L11,10.067 L7.5,10.0671477 C6.11928813,10.0671477 5,8.94785959 5,7.56714772 L5.00029246,6.91475048 C4.41754351,6.70891488 4,6.15321869 4,5.5 C4,4.67157288 4.67157288,4 5.5,4 Z M16.5,10.0671477 L12,10.067 L12,13.855 L18,13.855 L18,11.5671477 C18,10.7387206 17.3284271,10.0671477 16.5,10.0671477 Z" id="形状结合"></path>
            </g>
        </g>
    </g>
</svg>