<?xml version="1.0" encoding="UTF-8"?>
<svg width="24px" height="24px" viewBox="0 0 24 24" version="1.1" xmlns="http://www.w3.org/2000/svg" xmlns:xlink="http://www.w3.org/1999/xlink">
    <title>换热站-hover/点击</title>
    <g id="切图" stroke="none" stroke-width="1" fill="none" fill-rule="evenodd">
        <g id="icon-有背景" transform="translate(-575.000000, -214.000000)">
            <g id="换热站-hover/点击" transform="translate(575.000000, 214.000000)">
                <g id="编组-8" transform="translate(3.000000, 3.000000)">
                    <path d="M9,-0.5 C11.6233526,-0.5 13.9983526,0.563323719 15.7175144,2.28248558 C17.4366763,4.00164744 18.5,6.37664744 18.5,9 C18.5,11.6233526 17.4366763,13.9983526 15.7175144,15.7175144 C13.9983526,17.4366763 11.6233526,18.5 9,18.5 C6.37664744,18.5 4.00164744,17.4366763 2.28248558,15.7175144 C0.563323719,13.9983526 -0.5,11.6233526 -0.5,9 C-0.5,6.37664744 0.563323719,4.00164744 2.28248558,2.28248558 C4.00164744,0.563323719 6.37664744,-0.5 9,-0.5 Z" id="矩形" stroke="#FFFFFF" fill="#663F29"></path>
                    <path d="M9.20963824,5.70663122 L9.91722026,5 L13.3938204,8.48127811 L5.19691021,8.48127811 L5.19691021,7.48127811 L10.9809102,7.48031561 L9.20963824,5.70663122 Z M9.18418219,12.68 L8.47660016,13.3866312 L5,9.9053531 L13.1969102,9.9053531 L13.1969102,10.9053531 L7.41291021,10.9063156 L9.18418219,12.68 Z" id="形状结合" fill="#FFFFFF" fill-rule="nonzero"></path>
                </g>
            </g>
        </g>
    </g>
</svg>