<?xml version="1.0" encoding="UTF-8"?>
<svg width="24px" height="24px" viewBox="0 0 24 24" version="1.1" xmlns="http://www.w3.org/2000/svg" xmlns:xlink="http://www.w3.org/1999/xlink">
    <title>热力图-白</title>
    <g id="切图" stroke="none" stroke-width="1" fill="none" fill-rule="evenodd">
        <g id="icon-有背景" transform="translate(-21.000000, -21.000000)" fill="#FFFFFF" fill-rule="nonzero">
            <g id="热力图-白" transform="translate(21.000000, 21.000000)">
                <path d="M17.9995604,13.9998575 C19.69999,13.9998575 20.9999959,15.2999216 20.9999959,17.0004274 C20.9999959,18.6999359 19.69999,20 17.9995604,20 C16.2991307,20 14.9991248,18.6994372 14.9991248,17.0004274 C14.9991248,15.2999216 16.2996294,13.9998575 17.9995604,13.9998575 Z M17.9995604,15.0007124 C16.8964802,15.0039971 16.0029958,15.8972987 15.9994362,17.0004274 C15.9994362,18.1000214 16.9000157,18.9996438 17.9995604,18.9996438 C19.099105,18.9996438 20.0001832,18.1000214 20.0001832,17.0004274 C19.99635,15.8972181 19.1027221,15.0039957 17.9995604,15.0007124 Z M17.9995604,16.0000712 C18.5517417,16.0000712 18.9993731,16.4477227 18.9993731,16.9999288 C18.9993731,17.5521348 18.5517417,17.9997863 17.9995604,17.9997863 C17.4470454,17.9997863 16.9997476,17.5524685 16.9997476,17.0004274 C16.9997476,16.4481407 17.4472984,16.0003466 17.9995604,16.0000712 Z M9.50021676,5 C12.499655,5 14.9999349,7.49939446 14.9999349,10.4999644 C14.9999349,13.5000356 12.499655,16.0004274 9.50021676,16.0004274 C6.50027986,16.0004274 4,13.5000356 4,10.4999644 C4,7.49989314 6.50027986,5 9.50021676,5 Z M9.50021676,5.99981286 C8.30509535,5.9945254 7.15737522,6.46691393 6.31224154,7.31199182 C5.46710785,8.1570697 4.9946133,9.30478887 4.99977029,10.4999644 C4.99474764,11.6950991 5.46728534,12.8427401 6.31238977,13.6877887 C7.15749419,14.5328373 8.30513614,15.005269 9.50021676,15.0001137 C10.6951249,15.0050023 11.8425095,14.5324528 12.6873975,13.6874333 C13.5322856,12.8424138 14.0046867,11.6949255 13.9996659,10.4999644 C14.004821,9.3049625 13.532463,8.157396 12.6875457,7.31234725 C11.8426285,6.4672985 10.6951657,5.99479218 9.50021676,5.99981286 Z M9.50021676,6.99921636 C11.4001103,6.99921636 12.9998107,8.59998575 12.9998107,10.4999644 C12.9998107,12.399943 11.400609,14.0007124 9.50021676,14.0007124 C7.59982455,14.0007124 6.00012415,12.399943 6.00012415,10.4999644 C6.00012415,8.59998575 7.59982455,6.99921636 9.50021676,6.99921636 Z M9.50021676,7.99957256 C8.09948159,7.99957256 6.99943824,9.09966517 6.99943824,10.4999644 C6.99943824,11.8997649 8.09948159,12.9998575 9.50021676,12.9998575 C10.8999546,12.9998575 11.999998,11.8997649 11.999998,10.4999644 C11.999998,9.09966517 10.9004533,7.99957256 9.50021676,7.99957256 Z M9.4997181,8.99893105 C10.3282655,8.99851831 11.0002708,9.66988384 11.0006842,10.4984683 C11.0009511,11.0344685 10.7152581,11.5298957 10.2512228,11.7981272 C9.78718738,12.0663588 9.21530759,12.0666439 8.75100498,11.7988753 C8.28670237,11.5311066 8.00051554,11.0359646 8.00024793,10.4999644 C7.99983522,9.67137989 8.67117071,8.99934455 9.4997181,8.99893105 Z M18.9993731,6.06188319 C20.0796958,6.06188319 20.9648912,6.91959757 20.9989986,7.99943008 C21.0220402,8.7289204 20.6460334,9.41307857 20.0178653,9.78463824 C19.3896972,10.1561979 18.609049,10.1561979 17.9808809,9.78463824 C17.3527128,9.41307857 16.976706,8.7289204 16.9997476,7.99943008 C17.033855,6.91959757 17.9190504,6.06188319 18.9993731,6.06188319 Z" id="形状结合"></path>
            </g>
        </g>
    </g>
</svg>