<?xml version="1.0" encoding="utf-8"?>
<svg version="1.1" xmlns:xlink="http://www.w3.org/1999/xlink" width="14px" height="14px" xmlns="http://www.w3.org/2000/svg">
  <g transform="matrix(1 0 0 1 -104 -83 )">
    <path d="M 13.16058947368424 7.9403636363636  L 7.886545454545512 7.940348154989351  L 7.886545454545512 13.20421052631582  C 7.886545454545512 13.619199999999978  7.467636363636302 13.958736842105282  6.9556363636363585 13.958736842105282  C 6.443636363636415 13.958736842105282  6.024727272727205 13.619199999999978  6 13.20421052631582  L 5.999999999948159 7.9403636363636  L 0.7674947368420817 7.9403636363636  C 0.35250526315780917 7.9403636363636  0.012968421052619306 7.521454545454503  0.012968421052619306 7.00945454545456  C 0.012968421052619306 6.497454545454502  0.35250526315780917 6.078545454545406  0.7674947368420817 6.078545454545406  L 6 6.078600723581189  L 6 0.8205473684211029  C 6.024727272727205 0.40555789473683035  6.443636363636415 0.0660210526315268  6.9556363636363585 0.0660210526315268  C 7.467636363636302 0.0660210526315268  7.886545454545512 0.40555789473683035  7.886545454545512 0.8205473684211029  L 7.886545454623501 6.078545454545406  L 13.151157894736798 6.078545454545406  C 13.56614736842107 6.078545454545406  13.90568421052626 6.497454545454502  13.90568421052626 7.00945454545456  C 13.90568421052626 7.521454545454503  13.575578947368513 7.9403636363636  13.16058947368424 7.9403636363636  Z " fill-rule="nonzero" fill="#ffffff" stroke="none" transform="matrix(1 0 0 1 104 83 )" />
  </g>
</svg>