<?xml version="1.0" encoding="UTF-8"?>
<svg width="24px" height="24px" viewBox="0 0 24 24" version="1.1" xmlns="http://www.w3.org/2000/svg" xmlns:xlink="http://www.w3.org/1999/xlink">
    <title>提示2</title>
    <g id="切图" stroke="none" stroke-width="1" fill="none" fill-rule="evenodd">
        <g id="画板" transform="translate(-131.000000, -85.000000)" fill="#FFFFFF" fill-rule="nonzero">
            <g id="提示2" transform="translate(131.000000, 85.000000)">
                <g id="供热平衡备份" transform="translate(2.000000, 2.000000)">
                    <g id="编组-4" transform="translate(3.000000, 2.000000)">
                        <path d="M8.75127132,14.118 C8.75127132,15.157 7.96745048,16 7.00045918,16 C6.03439767,16 5.25057683,15.157 5.25057683,14.118 Z M7.00045918,0 C7.48488463,0 7.87540035,0.421 7.87540035,0.941 C7.87540035,0.97 7.86424276,0.996 7.86145336,1.024 C10.3523858,1.465 12.2528956,3.786 12.2528956,6.588 L12.252581,7.16089709 C12.3094222,8.79078669 12.4392788,9.80282917 12.6421507,10.1970245 C12.9169929,10.7310636 13.2498692,11.1567359 13.6407796,11.4740415 C13.8586459,11.6442786 14.0005534,11.9216667 14,12.235 C14,12.754 13.6094728,13.175 13.1259772,13.175 L0.874941172,13.175 C0.391445519,13.175 0,12.755 0,12.235 C0,11.9088095 0.154030666,11.6215748 0.388191238,11.452776 L0.364804981,11.4740415 C0.755715349,11.1567359 1.08859164,10.7310636 1.36343385,10.1970245 C1.56381316,9.80767247 1.69296032,8.81556243 1.75087532,7.22069442 L1.75081214,6.588 C1.75081214,3.785 3.65132198,1.465 6.14132459,1.024 C6.13853519,0.995 6.125518,0.97 6.125518,0.941 C6.125518,0.421 6.51696352,0 7.00045918,0 Z" id="形状结合"></path>
                    </g>
                </g>
            </g>
        </g>
    </g>
</svg>