<?xml version="1.0" encoding="utf-8"?>
<svg version="1.1" xmlns:xlink="http://www.w3.org/1999/xlink" width="14px" height="14px" xmlns="http://www.w3.org/2000/svg">
  <g transform="matrix(1 0 0 1 -167 -248 )">
    <path d="M 0.7227499999999997 12.617500000000001  L 1.1882499999999996 10.909500000000003  C 1.0658389991650723 10.704395564569499  0.9468227790831532 10.497284005113215  0.8312499999999998 10.288250000000001  C 0.28813897810114214 9.273931715134232  0.003960870003962225 8.141172826993573  0.003960870003962225 6.990602896428266  C 0.003960870003962225 3.1323416341103427  3.131699607686039 0.00460289642826589  6.989960870003962 0.00460289642826589  C 10.848222132321885 0.00460289642826589  13.975960870003965 3.1323416341103427  13.975960870003965 6.990602896428266  C 13.975960870003965 10.848864158746188  10.848222132321885 13.976602896428265  6.989960870003962 13.976602896428265  C 5.726978896439351 13.976602896428265  4.487620683284553 13.634217353595258  3.4037499999999996 12.985875  L 3.0756249999999996 12.79425  L 1.365875 13.260625000000001  C 1.3211182617690327 13.272774157539738  1.2749470210111447 13.27892934846729  1.2285706515327068 13.27892934846729  C 0.9391044070276418 13.27892934846729  0.7044456515327068 13.044270592972357  0.7044456515327068 12.75480434846729  C 0.7044456515327068 12.708427978988858  0.7106008424602626 12.662256738230962  0.7227499999999997 12.617500000000001  Z M 2.2023749999999995 10.566500000000003  C 2.274999999999999 10.689000000000004  2.29425 10.835125000000001  2.2575000000000003 10.971625000000001  L 1.9748749999999997 12.008500000000002  L 3.0117499999999993 11.725875000000002  C 3.146980040523428 11.68909410564483  3.2913076333368703 11.708001650554888  3.4124999999999996 11.778375000000002  C 3.5901249999999996 11.880750000000003  3.7668749999999998 11.984000000000004  3.9427499999999993 12.088125000000003  C 4.864059147624776 12.639305279761793  5.9175698906376315 12.930383826813046  6.991166763907755 12.930383826813046  C 10.270495537215547 12.930383826813046  12.928916763907754 10.271962600120842  12.928916763907754 6.992633826813048  C 12.928916763907754 3.713305053505253  10.270495537215547 1.0548838268130467  6.991166763907755 1.0548838268130467  C 3.71183799059996 1.0548838268130467  1.0534167639077536 3.713305053505253  1.0534167639077536 6.992633826813048  C 1.0534167639077536 7.969613094828954  1.2944862942096398 8.931498231250083  1.7552499999999993 9.793000000000003  C 1.8156249999999994 9.906750000000002  1.966125 10.167500000000002  2.2023749999999995 10.566500000000003  Z M 6.991249999999999 10.659250000000002  C 6.1351651795841065 10.66041342695328  5.305848521132516 10.36095517126893  4.647999999999999 9.813125000000001  C 4.519665680955425 9.71386747301566  4.44453213803618 9.560773420609948  4.44453213803618 9.398533616284125  C 4.44453213803618 9.10906737177906  4.679190893531117 8.874408616284125  4.968657138036181 8.874408616284125  C 5.097257202881943 8.874408616284125  5.221369088381163 8.921688083164467  5.317375 9.00725  C 5.7872414404512655 9.398612574754189  6.379745800095819 9.61232298152614  6.99125 9.611  C 7.612500000000001 9.611  8.197875 9.39575  8.66425 9.007249999999999  C 8.759085208391635 8.92642876386859  8.87961194122307 8.882037494268321  9.004214465116025 8.882037494268321  C 9.293680709621087 8.882037494268321  9.528339465116025 9.116696249763258  9.528339465116025 9.406162494268322  C 9.528339465116025 9.564092524035168  9.457126473921667 9.713602931112264  9.334499999999998 9.813125000000001  C 8.6765 10.360875  7.8469999999999995 10.660125  6.991249999999999 10.659250000000002  Z " fill-rule="nonzero" fill="#7f7f7f" stroke="none" transform="matrix(1 0 0 1 167 248 )" />
  </g>
</svg>