<?xml version="1.0" encoding="utf-8"?>
<svg version="1.1" xmlns:xlink="http://www.w3.org/1999/xlink" width="13px" height="14px" xmlns="http://www.w3.org/2000/svg">
  <g transform="matrix(1 0 0 1 -93 -248 )">
    <path d="M 11.102679743872551 5.315160488425927  L 8.247267979166667 5.315160488425926  C 8.512026154411764 4.112197525462963  8.696915037990196 3.2421234513888884  8.80227450980392 2.703209881944445  C 9.067372549019609 1.3464197476851854  8.37896731495098 0.08641974768518512  7.014562096813726 0.08641974768518512  C 5.784235294117647 0.08641974768518512  5.166352941176471 0.7082962962962961  4.802013077205882 1.9513580300925926  L 4.792666666666668 1.9876543263888893  C 4.573960784313726 2.9932345787037042  4.239529411764707 3.772740740740741  3.796849667892157 4.3304938217592595  C 3.330598423484384 4.919431444131257  2.632570457919189 5.269067017286128  1.8893333333333342 5.285950622685185  L 1.5402875870098045 5.293555555555556  C 0.707947707107843 5.311703703703704  0.04248366544117654 6.008592592592592  0.04248366544117654 6.862246918981482  L 0.04248366544117654 12.012345673611112  C 0.04248366544117654 13.06234567361111  0.8726143897058825 13.913580236111112  1.8968104522058822 13.913580252314816  L 8.468862745098042 13.913580252314816  C 9.818823529411766 13.913580252314816  11.02383006004902 13.045580252314815  11.481803921568629 11.743580252314816  L 12.847058823529414 7.861432104166667  C 13.19440523406863 6.87365432638889  12.695137254901963 5.784074074074075  11.731777783088239 5.427851851851853  C 11.530137302211918 5.3532883040301416  11.31723345531395 5.315150488793158  11.102679743872551 5.315160488425927  Z " fill-rule="nonzero" fill="#7f7f7f" stroke="none" transform="matrix(1 0 0 1 93 248 )" />
  </g>
</svg>