<?xml version="1.0" encoding="utf-8"?>
<svg version="1.1" xmlns:xlink="http://www.w3.org/1999/xlink" width="12px" height="14px" xmlns="http://www.w3.org/2000/svg">
  <g transform="matrix(1 0 0 1 -240 -248 )">
    <path d="M 11.883145867346936 12.00754285840708  C 11.883145867346936 10.915329373893808  11.009033341836734 10.028238902654868  9.929557040816325 10.028238902654868  C 9.384553147959185 10.028238902654868  8.889573765306123 10.257337349557524  8.53413644387755 10.622296488938055  L 3.802870775510204 7.963689024336285  C 3.942412836734693 7.691967623893807  4.026664637755102 7.388278988938055  4.026664637755102 7.060614951327434  C 4.026664637755102 6.866147672566373  3.9898044642857142 6.682336128318585  3.9397799540816325 6.503852466814161  L 8.602591025510206 3.573523586283188  C 8.95012974489796 3.890531889380532  9.405616086734694 4.087663101769913  9.905861204081633 4.087663101769913  C 10.985337505102041 4.087663101769913  11.864715765306125 3.1979086969026556  11.864715765306125 2.1056952123893815  C 11.864715765306125 1.0134817278761077  10.985337520408162 0.12372730752212391  9.905861219387756 0.12372730752212391  C 8.82638491836735 0.12372730752212391  7.947006658163268 1.0134817123893807  7.947006658163268 2.105695196902655  C 7.947006658163268 2.3321296946902654  7.991765433673471 2.545244524336283  8.060220030612246 2.7477036194690267  L 3.4395348673469384 5.648729199115045  C 3.0867304132653057 5.297089727876106  2.602282515306122 5.075983097345132  2.065177224489796 5.075983097345132  C 0.9857009234693881 5.075983097345132  0.10632266326530618 5.965737502212389  0.10632266326530618 7.057950986725663  C 0.10632266326530618 8.150164471238936  0.9857009234693881 9.039918876106196  2.065177224489796 9.039918876106196  C 2.4574747040816334 9.039918876106196  2.8234435102040814 8.92004178539823  3.1288563214285716 8.717582705752212  L 8.04442281122449 11.480083659292035  C 7.997031168367346 11.650575519911504  7.965436744897959 11.823731314159293  7.965436744897959 12.00754285840708  C 7.965436744897959 13.099756342920355  8.844815005102038 13.98951074778761  9.924291306122447 13.98951074778761  C 11.003767607142855 13.98951074778761  11.883145867346936 13.099756342920353  11.883145867346936 12.00754285840708  Z M 8.926433938775512 2.105695196902655  C 8.926433938775512 1.559588446902655  9.366123061224489 1.1147112522123894  9.905861219387756 1.1147112522123894  C 10.44559937755102 1.1147112522123894  10.885288500000001 1.559588446902655  10.885288500000001 2.105695196902655  C 10.885288500000001 2.651801946902655  10.44559937755102 3.0966791415929205  9.905861219387756 3.0966791415929205  C 9.366123061224492 3.0966791415929205  8.926433938775512 2.651801946902655  8.926433938775512 2.105695196902655  Z M 2.0678100918367353 8.051598880530973  C 1.52807193367347 8.051598880530973  1.0883828112244898 7.606721685840708  1.0883828112244898 7.060614935840708  C 1.0883828112244898 6.5145081858407075  1.5280719336734694 6.069630991150443  2.067810091836735 6.069630991150443  C 2.6075482500000002 6.069630991150443  3.04723737244898 6.514508185840708  3.04723737244898 7.060614935840708  C 3.04723737244898 7.606721685840708  2.6075482500000002 8.051598880530973  2.0678100918367353 8.051598880530973  Z M 10.90898432142857 12.010206792035397  C 10.908984321428573 12.558977475663717  10.469295198979593 13.001190736725663  9.929557040816325 13.001190736725663  C 9.38981888265306 13.001190736725663  8.950129760204081 12.556313542035397  8.950129760204081 12.010206792035397  C 8.950129760204081 11.464100042035398  9.38981888265306 11.019222847345134  9.929557040816325 11.019222847345134  C 10.46929519897959 11.019222847345134  10.90898432142857 11.464100042035398  10.90898432142857 12.010206792035397  Z " fill-rule="nonzero" fill="#7f7f7f" stroke="none" transform="matrix(1 0 0 1 240 248 )" />
  </g>
</svg>