<?xml version="1.0" encoding="utf-8"?>
<svg version="1.1" xmlns:xlink="http://www.w3.org/1999/xlink" width="16px" height="10px" xmlns="http://www.w3.org/2000/svg">
  <g transform="matrix(1 0 0 1 -19 -250 )">
    <path d="M 8 0.0021052631578945048  C 11.504 0.0021052631578945048  14.54 2.035789473684211  16 5  C 14.54 7.964210526315788  11.504 9.997894736842106  8 9.997894736842106  C 4.496 9.997894736842106  1.46 7.9642105263157905  0 5  C 1.46 2.035789473684211  4.496 0.0021052631578945048  8 0.0021052631578945048  Z M 4.888 4.928421052631579  C 4.888 6.658947368421053  6.28 8.061052631578946  8 8.061052631578946  C 9.72 8.061052631578946  11.112 6.658947368421051  11.112 4.928421052631578  C 11.112 3.197894736842106  9.72 1.7957894736842108  8 1.7957894736842108  C 6.279999999999999 1.7957894736842108  4.888 3.197894736842106  4.888 4.928421052631579  Z M 8 2.52  C 6.772 2.52  5.776 3.6315789473684212  5.776 5  C 5.776 6.36842105263158  6.772 7.48  8 7.48  C 9.228 7.48  10.224 6.36842105263158  10.224 5  C 10.224 3.6315789473684204  9.228 2.52  8 2.52  Z " fill-rule="nonzero" fill="#7f7f7f" stroke="none" transform="matrix(1 0 0 1 19 250 )" />
  </g>
</svg>