<?xml version="1.0" encoding="utf-8"?>
<svg version="1.1" xmlns:xlink="http://www.w3.org/1999/xlink" width="18px" height="18px" xmlns="http://www.w3.org/2000/svg">
  <g transform="matrix(1 0 0 1 -102 -150 )">
    <path d="M 17.93854303125 8.974817625  C 17.93854303125 4.024682718749999  13.926151687499999 0.014689710937499711  8.97601678125 0.014689710937499711  C 4.0258818750000005 0.014689710937499711  0.013490554687500378 4.027081031249999  0.013490554687500378 8.977215937499999  C 0.013490554687500378 13.927350843749998  4.0258818750000005 17.9397421640625  8.97601678125 17.9397421640625  C 13.926151687499999 17.9397421640625  17.93854303125 13.92495253125  17.93854303125 8.974817625  Z M 15.8639951953125 11.886379523437498  C 15.487458773437499 12.773758359375  14.950234828124998 13.572399328124998  14.261916656250001 14.260717499999998  C 13.575996796875003 14.946637359374998  12.774957539062502 15.4862596171875  11.885180367187502 15.8627960390625  C 11.199260507812502 16.152992906250002  10.47976415625 16.3352653125  9.741081234375002 16.412011593749998  L 9.741081234374999 13.5004496953125  L 8.2541221171875 13.5004496953125  L 8.2541221171875 16.4168082421875  C 7.498650937500001 16.344858609375  6.767163000000001 16.1601878671875  6.0668531953125 15.865194375  C 5.1770760468749994 15.488657953125  4.378435078124999 14.9490356953125  3.690116906249999 14.263115835937498  C 3.004197046874999 13.5771959765625  2.4645747890624996 12.776156718749998  2.0880383671874996 11.886379546874997  C 1.7978414999999996 11.200459687499999  1.6155690937499994 10.480963335937497  1.5388228124999994 9.742280414062499  L 4.4983511484375 9.742280414062499  L 4.4983511484375 8.255321296875  L 1.5364245 8.2553212734375  C 1.6083741328125 7.49985009375  1.7930448750000003 6.76836215625  2.0880383671875 6.068052351562499  C 2.4645747890625 5.178275203124999  3.0041970468750003 4.379634234374999  3.6901169062500006 3.6913160624999986  C 4.376036765625001 3.0053962031249983  5.177076023437501 2.465773945312499  6.0668531953125004 2.089237523437499  C 6.767162976562501 1.794244007812499  7.498650937500001 1.6095732890624987  8.2541221171875 1.5376236562499987  L 8.2541221171875 4.487558695312499  L 9.741081234374999 4.487558695312499  L 9.741081234374999 1.5400219921875  C 10.47976415625 1.6143699375  11.1992605078125 1.7990406796875003  11.885180367187498 2.089237546875  C 12.774957515625 2.4657739687499998  13.573598484375 3.0053962265624996  14.261916656249998 3.6913160859375  C 14.947836515624997 4.3772359453125  15.487458773437499 5.178275203125001  15.8639951953125 6.068052375000001  C 16.1589887109375 6.76836215625  16.343659429687502 7.4998501171875  16.4156090625 8.255321296875  L 13.48246228125 8.2553212734375  L 13.48246228125 9.742280390624998  L 16.413210749999998 9.742280390624998  C 16.338862804687498 10.4809633125  16.154192062499998 11.2004596640625  15.8639951953125 11.886379523437498  Z M 11.4582791953125 9.0707504765625  C 11.4582791953125 7.751673843749999  10.415009484375 6.732387328125  9.095932851562498 6.732387328125  C 7.776856195312499 6.732387328125  6.733586484374999 7.751673820312501  6.733586484374999 9.0707504765625  C 6.733586484374999 10.389827132812501  7.776856195312498 11.4570800390625  9.095932851562498 11.4570800390625  C 10.415009507812501 11.4570800390625  11.4582791953125 10.389827109375002  11.4582791953125 9.0707504765625  Z " fill-rule="nonzero" fill="#ffffff" stroke="none" transform="matrix(1 0 0 1 102 150 )" />
  </g>
</svg>