<?xml version="1.0" encoding="utf-8"?>
<svg version="1.1" xmlns:xlink="http://www.w3.org/1999/xlink" width="14px" height="16px" xmlns="http://www.w3.org/2000/svg">
  <g transform="matrix(1 0 0 1 -104 -45 )">
    <path d="M 5.361702127659575 14.442477876106194  C 5.361702127659575 15.320353982300885  6.0765957446808505 16  7 16  C 7.9234042553191495 16  8.638297872340425 15.320353982300885  8.638297872340425 14.442477876106194  L 5.361702127659575 14.442477876106194  Z M 14 12.516814159292036  L 12.37659574468085 10.930973451327434  L 12.37659574468085 6.88141592920354  C 12.37659574468085 4.446017699115045  10.559574468085104 2.4070796460176993  8.191489361702128 1.8690265486725668  L 8.191489361702128 1.3592920353982303  C 8.191489361702128 0.7929203539823011  7.8638297872340415 0.2831858407079649  7.297872340425532 0.16991150442477893  C 6.478723404255319 -0.014159292035398055  5.808510638297872 0.5805309734513276  5.808510638297872 1.345132743362832  L 5.808510638297872 1.8831858407079647  C 3.4404255319148938 2.4070796460176993  1.6234042553191488 4.446017699115044  1.6234042553191488 6.88141592920354  L 1.6234042553191488 10.930973451327434  L 0 12.516814159292036  L 0 13  L 14 13  L 14 12.516814159292036  Z " fill-rule="nonzero" fill="#ffffff" stroke="none" transform="matrix(1 0 0 1 104 45 )" />
  </g>
</svg>